<?xml version="1.0" encoding="UTF-8" standalone="no"?>
<!DOCTYPE svg PUBLIC "-//W3C//DTD SVG 1.1//EN" "http://www.w3.org/Graphics/SVG/1.1/DTD/svg11.dtd">
<svg width="100%" height="100%" viewBox="0 0 50 50" version="1.1" xmlns="http://www.w3.org/2000/svg" xmlns:xlink="http://www.w3.org/1999/xlink" xml:space="preserve" xmlns:serif="http://www.serif.com/" style="fill-rule:evenodd;clip-rule:evenodd;stroke-linejoin:round;stroke-miterlimit:2;">
    <g id="Artboard1" transform="matrix(1.02182,0,0,1.12772,-5.54963,-8.20974)">
        <rect x="5.431" y="7.28" width="48.932" height="44.337" style="fill:none;"/>
        <g>
            <g id="Group" transform="matrix(0.978644,0,0,0.886743,15.2173,10.3835)">
                <g id="Social-Media">
                    <g id="Frank-Logo-Grey">
                        <g id="Group1" serif:id="Group">
                            <path id="Combined-Shape" d="M24.481,2C24.937,2 25.428,2.036 25.919,2.108C28.339,2.542 29.952,4.203 29.952,6.586L29.952,6.731C29.847,8.644 28.619,10.197 27.111,10.197C26.971,10.197 26.866,10.197 26.725,10.161C25.498,9.944 24.621,8.825 24.621,7.525C24.621,7.272 24.656,7.019 24.726,6.767C25.077,5.142 26.515,3.878 27.742,3.878C27.848,3.878 27.918,3.914 28.023,3.914C27.322,3.481 26.76,3.192 26.234,3.119C26.024,3.083 25.814,3.083 25.603,3.083C23.464,3.083 21.429,4.961 19.535,13.086L19.219,14.409L29.361,14.409C29.688,14.409 29.952,14.674 29.952,15C29.952,15.326 29.688,15.591 29.361,15.591L18.932,15.59C18.535,17.186 18.141,19.001 17.713,20.909L29.361,20.909C29.688,20.909 29.952,21.174 29.952,21.5C29.952,21.826 29.688,22.091 29.361,22.091L17.446,22.09C17.047,23.839 16.613,25.642 16.117,27.41L29.409,27.409C29.735,27.409 30,27.674 30,28C30,28.326 29.735,28.591 29.409,28.591L15.774,28.591C13.787,35.204 10.821,41 5.366,41C2.736,41 0,39.339 0,36.558C0,36.161 0.07,35.764 0.175,35.331C0.456,33.669 1.754,32.767 2.946,32.767C3.086,32.767 3.192,32.767 3.332,32.803C4.454,33.019 5.331,34.139 5.331,35.475C5.331,35.692 5.331,35.944 5.261,36.197C4.945,37.822 3.472,39.086 2.245,39.086C2.139,39.086 2.069,39.05 1.964,39.05C2.841,39.483 3.612,39.7 4.314,39.7C8.092,39.7 9.291,33.612 10.399,26.719L10.514,26.003L10.628,25.283C10.762,24.441 10.897,23.592 11.037,22.746L11.147,22.09L4.784,22.091C4.458,22.091 4.193,21.826 4.193,21.5C4.193,21.174 4.458,20.909 4.784,20.909L11.354,20.91C11.688,19.056 12.065,17.249 12.532,15.59L0.591,15.591C0.265,15.591 0,15.326 0,15C0,14.674 0.265,14.409 0.591,14.409L12.899,14.409L13.328,13.086C15.256,6.456 19.45,2.158 24.215,2.004L24.481,2Z" style="fill:rgb(142,142,142);"/>
                        </g>
                    </g>
                </g>
            </g>
        </g>
    </g>
</svg>
